<svg width="368" height="109" viewBox="0 0 368 109" fill="none" xmlns="http://www.w3.org/2000/svg">
<mask id="path-1-inside-1_2079_5755" fill="white">
<path fill-rule="evenodd" clip-rule="evenodd" d="M0 101C0 105.418 3.58173 109 8 109L360 109C364.418 109 368 105.418 368 101V8C368 3.58172 364.418 0 360 0L214 0C210.134 0 207 3.13401 207 7C207 13.6274 201.627 19 195 19L173 19C166.373 19 161 13.6274 161 7C161 3.13401 157.866 0 154 0L8 0C3.58173 0 0 3.58172 0 8V101Z"/>
</mask>
<path fill-rule="evenodd" clip-rule="evenodd" d="M0 101C0 105.418 3.58173 109 8 109L360 109C364.418 109 368 105.418 368 101V8C368 3.58172 364.418 0 360 0L214 0C210.134 0 207 3.13401 207 7C207 13.6274 201.627 19 195 19L173 19C166.373 19 161 13.6274 161 7C161 3.13401 157.866 0 154 0L8 0C3.58173 0 0 3.58172 0 8V101Z" fill="white"/>
<path d="M360 108L8 108V110L360 110V108ZM367 8V101H369V8H367ZM214 1L360 1V-1L214 -1V1ZM206 7C206 13.0751 201.075 18 195 18V20C202.18 20 208 14.1797 208 7H206ZM195 18L173 18V20L195 20V18ZM173 18C166.925 18 162 13.0751 162 7H160C160 14.1797 165.82 20 173 20V18ZM8 1L154 1V-1L8 -1V1ZM1 101V8H-1V101H1ZM8 -1C3.02945 -1 -1 3.02943 -1 8H1C1 4.134 4.134 1 8 1V-1ZM162 7C162 2.58173 158.418 -1 154 -1V1C157.314 1 160 3.68629 160 7H162ZM214 -1C209.582 -1 206 2.58172 206 7H208C208 3.68629 210.686 1 214 1V-1ZM369 8C369 3.02943 364.971 -1 360 -1V1C363.866 1 367 4.134 367 8H369ZM8 108C4.134 108 1 104.866 1 101H-1C-1 105.971 3.02945 110 8 110V108ZM360 110C364.971 110 369 105.971 369 101H367C367 104.866 363.866 108 360 108V110Z" fill="#453953" mask="url(#path-1-inside-1_2079_5755)"/>
</svg>
