<svg width="368" height="109" viewBox="0 0 368 109" fill="none" xmlns="http://www.w3.org/2000/svg">
<mask id="path-1-inside-1_2079_5777" fill="white">
<path fill-rule="evenodd" clip-rule="evenodd" d="M368 8C368 3.58172 364.418 0 360 0H8C3.58172 0 0 3.58172 0 8V101C0 105.418 3.58172 109 8 109H153C157.418 109 161 105.418 161 101V100C161 93.3726 166.373 88 173 88H195C201.627 88 207 93.3726 207 100V101C207 105.418 210.582 109 215 109H360C364.418 109 368 105.418 368 101V8Z"/>
</mask>
<path fill-rule="evenodd" clip-rule="evenodd" d="M368 8C368 3.58172 364.418 0 360 0H8C3.58172 0 0 3.58172 0 8V101C0 105.418 3.58172 109 8 109H153C157.418 109 161 105.418 161 101V100C161 93.3726 166.373 88 173 88H195C201.627 88 207 93.3726 207 100V101C207 105.418 210.582 109 215 109H360C364.418 109 368 105.418 368 101V8Z" fill="white"/>
<path d="M8 1H360V-1H8V1ZM1 101V8H-1V101H1ZM153 108H8V110H153V108ZM162 101V100H160V101H162ZM162 100C162 93.9249 166.925 89 173 89V87C165.82 87 160 92.8203 160 100H162ZM173 89H195V87H173V89ZM195 89C201.075 89 206 93.9249 206 100H208C208 92.8203 202.18 87 195 87V89ZM206 100V101H208V100H206ZM360 108H215V110H360V108ZM367 8V101H369V8H367ZM360 110C364.971 110 369 105.971 369 101H367C367 104.866 363.866 108 360 108V110ZM206 101C206 105.971 210.029 110 215 110V108C211.134 108 208 104.866 208 101H206ZM153 110C157.971 110 162 105.971 162 101H160C160 104.866 156.866 108 153 108V110ZM-1 101C-1 105.971 3.02943 110 8 110V108C4.134 108 1 104.866 1 101H-1ZM360 1C363.866 1 367 4.13401 367 8H369C369 3.02944 364.971 -1 360 -1V1ZM8 -1C3.02944 -1 -1 3.02944 -1 8H1C1 4.13401 4.13401 1 8 1V-1Z" fill="#453953" mask="url(#path-1-inside-1_2079_5777)"/>
</svg>
